<svg xmlns="http://www.w3.org/2000/svg" fill-rule="evenodd" stroke-linejoin="round" stroke-miterlimit="2" clip-rule="evenodd" viewBox="0 0 45 44"><g fill="#084391" fill-rule="nonzero"><path d="M21.42 10.71L22 0l.58 10.71.001.031c0 .302-.248.55-.55.55L22 11.29a.622.622 0 01-.58-.58zM22 44l-.58-10.71c0-.318.262-.58.58-.58.318 0 .58.262.58.58v.12L22 44zM33.41 21.42l10.71.58-10.71.58-.031.001a.552.552 0 01-.55-.55L32.83 22c-.12-.23.11-.58.58-.58zM0 22l10.71-.58c.318 0 .58.262.58.58 0 .318-.262.58-.58.58h-.12L0 22zM31.2 12.11l6.17-5.36-5.31 6.17a.732.732 0 01-.81.12c-.24-.35-.35-.7 0-.93h-.05zM6.64 37.37l5.35-6.17a.712.712 0 01.82-.12.71.71 0 01.11.81l-.11.12-6.17 5.36zM32.06 31.2l5.36 6.17L31.2 32a.692.692 0 01-.14-.8.6.6 0 01.93 0c-.09-.12.07-.12.07 0zM6.64 6.63L12.81 12a.71.71 0 01.11.81.692.692 0 01-.81.12l-.12-.12-5.35-6.18z"/></g></svg>