<svg xmlns="http://www.w3.org/2000/svg" fill-rule="evenodd" stroke-linejoin="round" stroke-miterlimit="2" clip-rule="evenodd" viewBox="0 0 19 19"><g fill-rule="nonzero"><path fill="#FDD50A" d="M15.69 18.08H2.31A2.35 2.35 0 010 15.75V2.37v-.04A2.34 2.34 0 012.31 0h13.38A2.34 2.34 0 0118 2.33v13.42a2.35 2.35 0 01-2.31 2.33z"/><path fill="#084391" d="M14.18 15.32H3.82a.503.503 0 01-.5-.5V7.14a.489.489 0 01.2-.4l5.12-4a.501.501 0 01.6 0l5.24 4a.482.482 0 01.2.4v7.68c0 .274-.226.5-.5.5zm-9.86-1h9.36V7.39L9 3.81 4.37 7.38l-.05 6.94z"/></g></svg>